<svg width="581" height="635" viewBox="0 0 581 635" fill="none" xmlns="http://www.w3.org/2000/svg">
<path d="M147.043 355.899L172.331 265.987L408.349 172.329L273.482 588.171C247.257 591.917 80.5459 618.454 0 635C0 635 95.5312 597.537 191.999 559.137L269.735 310.006L147.043 355.899Z" fill="white"/>
<path d="M580.681 599.412C580.681 599.412 482.34 559.138 286.595 587.236L425.209 152.663L324.058 192.936L557.267 0L381.189 550.709C381.189 550.709 507.628 565.695 580.681 599.412Z" fill="#6AC006"/>
<path d="M515.118 590.044C515.118 590.044 374.631 574.122 111.452 624.697C162.402 618.703 195.744 619.078 232.271 629.38C232.271 629.38 358.709 585.361 515.118 590.044Z" fill="white"/>
</svg>
